<svg width="22" height="20" viewBox="0 0 22 20" fill="none" xmlns="http://www.w3.org/2000/svg">
<path id="icon1" d="M10.9996 19.8663C9.74961 19.8663 8.57878 19.628 7.48711 19.1514C6.39544 18.6748 5.44544 18.031 4.63711 17.22C3.82878 16.409 3.18711 15.4558 2.71211 14.3605C2.23711 13.2651 1.99961 12.0904 1.99961 10.8362C1.99961 9.58204 2.23711 8.40729 2.71211 7.31197C3.18711 6.21665 3.82878 5.26347 4.63711 4.45244C5.44544 3.6414 6.39544 2.99759 7.48711 2.521C8.57878 2.04441 9.74961 1.80612 10.9996 1.80612C12.2496 1.80612 13.4204 2.04441 14.5121 2.521C15.6038 2.99759 16.5538 3.6414 17.3621 4.45244C18.1704 5.26347 18.8121 6.21665 19.2871 7.31197C19.7621 8.40729 19.9996 9.58204 19.9996 10.8362C19.9996 12.0904 19.7621 13.2651 19.2871 14.3605C18.8121 15.4558 18.1704 16.409 17.3621 17.22C16.5538 18.031 15.6038 18.6748 14.5121 19.1514C13.4204 19.628 12.2496 19.8663 10.9996 19.8663ZM13.7996 15.0503L15.1996 13.6456L11.9996 10.4349V5.81949H9.99961V11.2376L13.7996 15.0503ZM4.59961 0.150597L5.99961 1.55528L1.74961 5.81949L0.349609 4.41481L4.59961 0.150597ZM17.3996 0.150597L21.6496 4.41481L20.2496 5.81949L15.9996 1.55528L17.3996 0.150597ZM10.9996 17.8596C12.9496 17.8596 14.6038 17.1782 15.9621 15.8153C17.3204 14.4524 17.9996 12.7927 17.9996 10.8362C17.9996 8.87969 17.3204 7.22 15.9621 5.85712C14.6038 4.49424 12.9496 3.8128 10.9996 3.8128C9.04961 3.8128 7.39544 4.49424 6.03711 5.85712C4.67878 7.22 3.99961 8.87969 3.99961 10.8362C3.99961 12.7927 4.67878 14.4524 6.03711 15.8153C7.39544 17.1782 9.04961 17.8596 10.9996 17.8596Z" fill="#1C1B1F"/>
</svg>
