<svg width="16" height="22" viewBox="0 0 16 22" fill="none" xmlns="http://www.w3.org/2000/svg">
<path id="icon2" d="M7 12.9866H9V9.97659H12V7.9699H9V4.95987H7V7.9699H4V9.97659H7V12.9866ZM8 18.3545C10.0333 16.4816 11.5417 14.7801 12.525 13.25C13.5083 11.7199 14 10.3612 14 9.17391C14 7.35117 13.4208 5.85869 12.2625 4.69649C11.1042 3.53428 9.68333 2.95318 8 2.95318C6.31667 2.95318 4.89583 3.53428 3.7375 4.69649C2.57917 5.85869 2 7.35117 2 9.17391C2 10.3612 2.49167 11.7199 3.475 13.25C4.45833 14.7801 5.96667 16.4816 8 18.3545ZM8 21.0134C5.31667 18.7224 3.3125 16.5945 1.9875 14.6296C0.6625 12.6647 0 10.8462 0 9.17391C0 6.66555 0.804167 4.66722 2.4125 3.17893C4.02083 1.69063 5.88333 0.946487 8 0.946487C10.1167 0.946487 11.9792 1.69063 13.5875 3.17893C15.1958 4.66722 16 6.66555 16 9.17391C16 10.8462 15.3375 12.6647 14.0125 14.6296C12.6875 16.5945 10.6833 18.7224 8 21.0134Z" fill="#1C1B1F"/>
</svg>
